# xmcd
#
# Track frame offsets:
#	150
#	9270
#	24040
#	41065
#	55567
#	70157
#	85060
#	97232
#	112260
#	122907
#	136877
#	151372
#	166620
#	179687
#	192172
#	210022
#	227820
#
# Disc length: 3219 seconds
#
# Revision: 1
# Processed by: cddbd v1.5.1PL0 Copyright (c) Steve Scherf et al.
# Submitted via: audiograbber 1.83.01
#
DISCID=d50c9111
DTITLE=Cajun Country Kickers - Cajun Country Kickers (UK)
DYEAR=1997
DGENRE=Country
TTITLE0=Rave On
TTITLE1=Cotton Eye Joe
TTITLE2=Lovin' All Night
TTITLE3=Summer Time Blues
TTITLE4=There Goes My Heart
TTITLE5=Down At The Twist And Shout
TTITLE6=Oh Lonesome Me
TTITLE7=I Couldn't Leave You If I Tried
TTITLE8=Louisiana Saturday Night
TTITLE9=Kinda Cajun (Instrumental)
TTITLE10=One More Last Chance
TTITLE11=Poor Boy Blues
TTITLE12=One Step Away
TTITLE13=That's Alright Mama
TTITLE14=Chattahoochee
TTITLE15=All You Ever Do Is Bring Me Down
TTITLE16=Wild Side Of Life
EXTD=
EXTT0=
EXTT1=
EXTT2=
EXTT3=
EXTT4=
EXTT5=
EXTT6=
EXTT7=
EXTT8=
EXTT9=
EXTT10=
EXTT11=
EXTT12=
EXTT13=
EXTT14=
EXTT15=
EXTT16=
PLAYORDER=
